
<svg version="1.1" id="Layer_1" xmlns="http://www.w3.org/2000/svg" xmlns:xlink="http://www.w3.org/1999/xlink" x="0px" y="0px"
	 width="104.397px" height="334.26px" viewBox="0 0 104.397 334.26" enable-background="new 0 0 104.397 334.26"
	 xml:space="preserve" xmlns:pulse="-">
<path d="M4.89,20.192c1.204-4.3,2.947-6.801,4.418-7.921C20.035,4.102,36.134,0,52.222,0c16.042,0,32.11,4.078,42.867,12.27
	c1.471,1.12,3.214,3.621,4.418,7.921c0.893,3.19,1.505,7.395,1.505,12.797c0,6.553,0.811,34.175,1.64,62.413
	c0.756,25.76,1.528,52.035,1.714,63.294c0.278,16.782-1.376,60.83-2.979,103.51c-0.588,15.662-1.17,31.141-1.645,44.975
	c-0.023,0.664-0.039,1.323-0.055,1.985c-0.052,2.143-0.105,4.319-0.359,6.128c-0.166,1.179-0.481,2.484-1.072,3.68
	c-0.609,1.234-1.506,2.349-2.824,3.097c-7.099,4.033-13.551,7.078-20.339,9.116c-6.802,2.042-13.93,3.072-22.367,3.072v-0.003
	c-23.44-0.033-37.211-8.275-42.542-11.465c-0.474-0.284-0.881-0.527-1.22-0.72c-1.317-0.748-2.215-1.863-2.824-3.097
	c-0.59-1.196-0.906-2.501-1.072-3.68c-0.254-1.808-0.307-3.985-0.359-6.128c-0.016-0.662-0.032-1.321-0.055-1.985
	c-0.475-13.834-1.057-29.313-1.645-44.975c-1.603-42.68-3.258-86.729-2.98-103.51c0.186-11.26,0.958-37.534,1.714-63.294
	c0.829-28.238,1.64-55.86,1.64-62.413C3.385,27.587,3.997,23.381,4.89,20.192 M93.244,321.681V12.665
	C82.758,5.156,67.494,1.417,52.222,1.417c-15.315,0-30.608,3.76-41.069,11.248v309.06c5.407,3.232,18.876,11.089,41.573,11.12
	v-0.003c8.297,0,15.296-1.01,21.963-3.012C80.892,327.969,86.82,325.246,93.244,321.681z M93.952,13.185v308.1l0.783-0.442
	c1.04-0.591,1.758-1.491,2.253-2.494c0.513-1.04,0.791-2.196,0.939-3.248c0.246-1.749,0.298-3.875,0.348-5.967
	c0.016-0.68,0.033-1.357,0.055-1.996c0.477-13.9,1.058-29.349,1.645-44.981c1.603-42.669,3.257-86.707,2.979-103.439
	c-0.186-11.222-0.958-37.507-1.714-63.278c-0.832-28.336-1.646-56.053-1.646-62.452c0-5.268-0.589-9.343-1.449-12.415
	c-1.109-3.962-2.641-6.21-3.914-7.18L93.952,13.185z M10.166,13.394c-1.273,0.969-2.805,3.218-3.914,7.18
	c-0.86,3.072-1.449,7.147-1.449,12.415c0,6.398-0.814,34.116-1.646,62.452c-0.757,25.771-1.529,52.056-1.714,63.278
	c-0.277,16.732,1.377,60.769,2.979,103.439c0.587,15.632,1.167,31.081,1.645,44.981c0.022,0.639,0.039,1.316,0.055,1.996
	c0.05,2.092,0.102,4.218,0.348,5.967c0.148,1.053,0.425,2.209,0.939,3.248c0.495,1.003,1.213,1.903,2.253,2.494
	c0.23,0.13,0.491,0.285,0.783,0.459V13.185L10.166,13.394z"/>
<path d="M62.627,26.807c-2.799-2.799-6.666-4.53-10.936-4.53c-4.271,0-8.138,1.731-10.936,4.53c-2.799,2.799-4.53,6.666-4.53,10.936
	c0,4.271,1.731,8.138,4.53,10.936c2.798,2.799,6.665,4.53,10.936,4.53c4.271,0,8.138-1.731,10.936-4.53
	c2.799-2.798,4.53-6.665,4.53-10.936C67.157,33.472,65.425,29.605,62.627,26.807 M51.69,21.71c4.427,0,8.436,1.795,11.337,4.696
	c2.901,2.901,4.696,6.91,4.696,11.337c0,4.427-1.795,8.436-4.696,11.337c-2.901,2.901-6.91,4.696-11.337,4.696
	c-4.427,0-8.436-1.795-11.337-4.696c-2.901-2.901-4.696-6.91-4.696-11.337c0-4.427,1.795-8.436,4.696-11.337
	C43.254,23.505,47.263,21.71,51.69,21.71z"/>
<path d="M66.472,22.962c-3.783-3.783-9.009-6.123-14.781-6.123s-10.999,2.34-14.782,6.123c-3.783,3.783-6.123,9.009-6.123,14.781
	c0,5.772,2.34,10.999,6.123,14.782c3.783,3.783,9.009,6.122,14.782,6.122c5.772,0,10.999-2.34,14.781-6.122
	c3.783-3.783,6.123-9.009,6.123-14.782C72.595,31.97,70.255,26.744,66.472,22.962 M51.69,16.272c5.929,0,11.297,2.404,15.182,6.289
	c3.885,3.885,6.289,9.253,6.289,15.182c0,5.929-2.403,11.297-6.289,15.182c-3.885,3.885-9.253,6.289-15.182,6.289
	c-5.929,0-11.297-2.404-15.182-6.289c-3.885-3.885-6.289-9.254-6.289-15.182c0-5.929,2.404-11.297,6.289-15.182
	C40.394,18.676,45.762,16.272,51.69,16.272z"/>
<path pulse:initial="true" fill-rule="evenodd" clip-rule="evenodd" d="M51.69,235.366c1.295,0,2.468,0.525,3.316,1.374
	c0.848,0.848,1.374,2.021,1.374,3.316c0,1.294-0.526,2.467-1.374,3.315l0.001,0.001c-0.848,0.848-2.021,1.374-3.316,1.374
	c-1.294,0-2.466-0.525-3.315-1.374l-0.001-0.001l-0.001-0.001c-0.848-0.849-1.374-2.021-1.374-3.315
	c0-1.295,0.525-2.468,1.374-3.316l0.001,0.001C49.224,235.891,50.396,235.366,51.69,235.366"/>
</svg>
