<?xml version="1.0" encoding="utf-8"?>
<!-- Generator: Adobe Illustrator 21.0.0, SVG Export Plug-In . SVG Version: 6.00 Build 0)  -->
<svg version="1.1" id="Layer_1" xmlns="http://www.w3.org/2000/svg" xmlns:xlink="http://www.w3.org/1999/xlink" x="0px" y="0px"
	 viewBox="0 0 179.6 575.1" style="enable-background:new 0 0 179.6 575.1;" xml:space="preserve">
<g>
	<path d="M179.5,273c-0.4-19.4-1.7-64.6-3-108.9c-1.4-48.6-2.8-96.1-2.8-107.4c0-9.3-1.1-16.5-2.6-22c-2.1-7.4-5.1-11.7-7.6-13.6
		C145,7,117.4,0,89.8,0C62.2,0,34.5,7.1,16,21.1c-2.5,1.9-5.5,6.2-7.6,13.6c-1.5,5.5-2.6,12.8-2.6,22.1C5.8,68,4.4,115.5,3,164.1
		C1.7,208.4,0.4,253.6,0.1,273c-0.5,28.9,2.3,104.7,5.1,178.2c1,27,2,53.6,2.8,77.4c0,1.1,0.1,2.3,0.1,3.4c0.1,3.6,0.2,7.4,0.6,10.5
		c0.2,2,0.8,4.2,1.8,6.3c1.1,2.1,2.6,4,4.9,5.3c0.6,0.3,1.3,0.7,2.1,1.2c9.2,5.5,32.9,19.6,73.2,19.7c14.5,0,26.8-1.8,38.5-5.3
		s22.8-8.8,35-15.7c2.3-1.3,3.9-3.2,4.9-5.3c1-2,1.5-4.3,1.8-6.3c0.4-3.1,0.5-6.8,0.6-10.5c0-1.1,0.1-2.3,0.1-3.4
		c0.8-23.8,1.8-50.5,2.8-77.4C177.1,377.7,180,301.9,179.5,273z M17.9,552.8c-0.5-0.3-0.9-0.6-1.3-0.8c-1.8-1-3-2.6-3.9-4.3
		c-0.9-1.8-1.3-3.8-1.6-5.6c-0.4-3-0.5-6.7-0.6-10.3c0-1.1-0.1-2.3-0.1-3.4c-0.8-23.9-1.8-50.5-2.8-77.4
		C4.8,377.6,2,301.8,2.5,273.1c0.4-19.3,1.7-64.6,3-108.9c1.4-48.7,2.8-96.4,2.8-107.4c0-9.1,1-16.1,2.5-21.4
		c1.9-6.9,4.5-10.7,6.7-12.4l0.4-0.3V552.8z M160.4,553.4c-11,6.1-21.2,10.8-32,14c-11.5,3.5-23.5,5.2-37.8,5.2
		c-39,0-62.2-13.5-71.5-19.1V21.8C37.1,8.9,63.5,2.4,89.8,2.4s52.6,6.5,70.6,19.4V553.4z M171.9,451c-1,26.9-2,53.5-2.8,77.4
		c0,1.1-0.1,2.2-0.1,3.4c-0.1,3.6-0.2,7.3-0.6,10.3c-0.2,1.8-0.7,3.8-1.6,5.6c-0.9,1.7-2.1,3.3-3.9,4.3l-1.3,0.8V22.7l0.5,0.2
		c2.2,1.7,4.8,5.6,6.7,12.4c1.5,5.3,2.5,12.3,2.5,21.4c0,11,1.4,58.7,2.8,107.4c1.3,44.4,2.6,89.6,2.9,108.9
		C177.5,301.8,174.7,377.6,171.9,451z"/>
	<path d="M69,45c-5.3,5.3-8.2,12.4-8.2,19.9s2.9,14.5,8.2,19.9S81.4,93,88.9,93s14.5-2.9,19.9-8.2c5.3-5.3,8.2-12.4,8.2-19.9
		s-2.9-14.5-8.2-19.9c-5.3-5.3-12.4-8.2-19.9-8.2S74.4,39.7,69,45z M107.4,46.5c4.9,4.8,7.6,11.4,7.6,18.4c0,6.9-2.8,13.6-7.7,18.4
		c-4.9,4.9-11.6,7.7-18.4,7.7c-6.9,0-13.6-2.8-18.4-7.7c-4.9-4.9-7.7-11.6-7.7-18.4s2.8-13.6,7.7-18.4c4.9-4.9,11.6-7.7,18.4-7.7
		C95.8,38.8,102.5,41.6,107.4,46.5L107.4,46.5z"/>
	<path d="M62.8,38.8C56.1,45.5,52,54.7,52,64.9c0,10.2,4.1,19.5,10.8,26.1c6.7,6.7,15.9,10.8,26.1,10.8c10.2,0,19.4-4.1,26.1-10.8
		s10.8-15.9,10.8-26.1c0-10.2-4.1-19.4-10.8-26.1S99.1,28,88.9,28C78.7,28,69.5,32.1,62.8,38.8z M124.8,64.9c0,9.9-4,18.9-10.5,25.4
		s-15.5,10.5-25.4,10.5c-9.9,0-18.9-4-25.4-10.5S53,74.8,53,64.9C53,55,57,46,63.5,39.5S79,29,88.9,29c10,0,19,4,25.5,10.5
		S124.9,55,124.8,64.9z"/>
</g>
<g>
	<path d="M56.9,232.4V197v-0.4l0,0c0-8.8,3.7-16.8,9.5-22.6s13.8-9.3,22.6-9.3c8.9,0,16.9,3.6,22.7,9.4c5.8,5.8,9.4,13.8,9.4,22.7
		l0,0v0.2l0,0v35.3c2.9,3.6,5.2,7.7,6.8,12.1c1.5,4.3,2.4,9,2.4,13.9s-0.8,9.5-2.4,13.9s-3.9,8.5-6.8,12.1v34.5v0.2l0,0
		c0,8.9-3.6,16.9-9.4,22.7c-5.8,5.8-13.8,9.4-22.7,9.4l0,0c-8.9,0-16.9-3.6-22.7-9.4s-9.4-13.8-9.4-22.7l0,0v-0.2l0,0v-34.5
		c-2.9-3.6-5.2-7.7-6.8-12.1c-1.5-4.3-2.4-9-2.4-13.9s0.8-9.5,2.4-13.9C51.6,240,54,236,56.9,232.4 M58.1,197v35.6v0.2L58,233
		c-2.9,3.5-5.2,7.5-6.7,11.9c-1.5,4.2-2.3,8.7-2.3,13.5c0,4.8,0.8,9.2,2.3,13.5c1.6,4.4,3.8,8.4,6.7,11.9l0.1,0.2v0.2v34.7l0,0v0.2
		l0,0c0,8.5,3.5,16.2,9,21.8s13.3,9,21.8,9l0,0c8.5,0,16.2-3.5,21.8-9s9-13.3,9-21.8l0,0v-0.2V284v-0.2l0.1-0.2
		c2.9-3.5,5.2-7.5,6.7-11.9c1.5-4.2,2.3-8.7,2.3-13.5s-0.8-9.2-2.3-13.5c-1.6-4.4-3.8-8.4-6.7-11.9l-0.1-0.2v-0.2V197l0,0v-0.2l0,0
		c0-8.5-3.5-16.2-9-21.8c-5.6-5.6-13.3-9-21.8-9s-16.2,3.4-21.8,9c-5.6,5.5-9.1,13.2-9.1,21.7l0,0v0.3H58.1z"/>
</g>
<g>
	<g id="XMLID_1_">
		<g>
			<path d="M107.1,178.7c4.8,4.8,7.5,11.3,7.5,18.1c0,6.9-2.7,13.3-7.5,18.2c-4.8,4.8-11.3,7.5-18.2,7.5c-6.8,0-13.3-2.7-18.2-7.5
				c-4.8-4.9-7.5-11.3-7.5-18.2s2.7-13.3,7.5-18.1c4.8-4.9,11.3-7.5,18.2-7.5C95.8,171.2,102.2,173.9,107.1,178.7z M112.6,196.9
				c0-6.3-2.5-12.3-6.9-16.8c-4.5-4.5-10.4-6.9-16.8-6.9c-6.3,0-12.3,2.5-16.8,6.9c-4.5,4.5-6.9,10.4-6.9,16.8s2.5,12.3,6.9,16.8
				c4.5,4.5,10.4,6.9,16.8,6.9c6.3,0,12.3-2.5,16.8-6.9C110.2,209.1,112.6,203.2,112.6,196.9z"/>
		</g>
	</g>
	<g>
		<path d="M88.9,293.3c-6.9,0-13.3,2.7-18.2,7.5c-4.8,4.8-7.5,11.3-7.5,18.2c0,6.9,2.7,13.3,7.5,18.2c4.8,4.8,11.3,7.5,18.2,7.5
			c6.9,0,13.3-2.7,18.2-7.5c4.8-4.8,7.5-11.3,7.5-18.2c0-6.9-2.7-13.3-7.5-18.2C102.2,296,95.8,293.3,88.9,293.3z M112.6,319
			c0,6.3-2.5,12.3-6.9,16.8s-10.4,6.9-16.8,6.9c-6.3,0-12.3-2.5-16.8-6.9c-4.5-4.5-6.9-10.4-6.9-16.8s2.5-12.3,6.9-16.8
			c4.5-4.5,10.4-6.9,16.8-6.9c6.3,0,12.3,2.5,16.8,6.9l0,0C110.2,306.7,112.6,312.6,112.6,319z"/>
	</g>
	<g id="XMLID_3_">
		<g>
			<path d="M68.4,278.8c5.5,5.5,12.8,8.5,20.5,8.5c7.8,0,15-3,20.5-8.5s8.5-12.8,8.5-20.5c0-7.8-3-15-8.5-20.5s-12.8-8.5-20.5-8.5
				s-15,3-20.5,8.5s-8.5,12.8-8.5,20.5C59.9,266.1,62.9,273.3,68.4,278.8z M67,236.4c5.8-5.9,13.6-9.1,21.9-9.1s16.1,3.2,21.9,9.1
				c5.8,5.9,9.1,13.6,9.1,21.9s-3.2,16-9.1,21.9s-13.6,9.1-21.9,9.1s-16.1-3.2-21.9-9.1s-9-13.6-9-21.9C58,250,61.2,242.3,67,236.4z
				"/>
		</g>
	</g>
</g>
<g>
	<g>
		<path d="M88.9,421.2c-2.2,0-4.2-0.9-5.8-2.4l-0.1-0.1c-1.5-1.5-2.3-3.6-2.3-5.7c0-2.2,0.9-4.3,2.4-5.8c1.6-1.6,3.6-2.4,5.8-2.4
			c2.2,0,4.3,0.9,5.8,2.4c1.6,1.5,2.4,3.6,2.4,5.8c0,2.1-0.8,4-2.2,5.5l0,0l-0.3,0.3C93.2,420.3,91.1,421.2,88.9,421.2z M88.9,405.8
			c-1.9,0-3.7,0.8-5.1,2.1c-1.4,1.4-2.1,3.2-2.1,5.1s0.8,3.7,2.1,5.1c1.4,1.4,3.2,2.1,5.1,2.1s3.6-0.7,5-2l0.1-0.1
			c1.4-1.4,2.1-3.2,2.1-5.1s-0.8-3.7-2.1-5.1C92.7,406.5,90.9,405.8,88.9,405.8z"/>
	</g>
</g>
<g>
	<path d="M58.9,529.8c0,0,0.6,0.2,1.2,0.5l1.9,0.8c0.5,0.2,0.7,0.7,0.6,1.1c-0.2,0.6-0.9,1.2-2.4,1c-0.6-0.1-2.1-0.4-2.1-0.4l0,0
		c0,0-0.9-0.3-1.4,0c-0.2,0.1-0.3,0.3-0.4,0.5c-0.2,0.8,0.6,1.1,0.6,1.1c0.3,0.1,0.6,0.2,0.9,0.2l0.2,0.1c0,0,1.9,0.4,3.4,0.4
		c1,0,3.4-0.2,4.3-2c0.1-0.2,0.3-1.1,0.2-1.7c-0.1-0.6-0.3-1.3-1.4-2c-0.3-0.2-1.2-0.5-2-0.7c-0.4-0.1-0.8-0.3-1-0.3
		c-1.4-0.6-1.6-1.1-1.6-1.3c0-0.1,0-0.5,0.3-0.8c0.3-0.4,0.9-0.5,1.6-0.5c1.1,0,1.6,0.1,2,0.3c0.1,0,0.2,0.1,0.3,0.1
		c0.4,0.1,0.6,0.1,0.8,0c0.2-0.1,0.3-0.4,0.3-0.5c0-0.2,0.1-0.7-0.8-1c-0.1,0-1.8-0.7-4.4-0.3c-0.4,0-1.1,0.2-1.8,0.6
		c-1,0.6-1.5,1.4-1.5,2.5c0,0.8,0.4,1.5,1,2C58.3,529.6,58.8,529.8,58.9,529.8 M75.8,532.2c-1.6,0-2.8-1.3-2.8-2.8
		c0-1.6,1.3-2.8,2.8-2.8c1.6,0,2.8,1.3,2.8,2.8C78.6,531,77.4,532.2,75.8,532.2 M75.8,521.5c-4.4,0-7.9,3.5-7.9,7.9s3.5,7.9,7.9,7.9
		s7.9-3.5,7.9-7.9C83.7,525.1,80.2,521.5,75.8,521.5 M86.2,525.7c0,0-0.1-1.3,1.3-1.3c0.8,0,1.3,0.7,2.2,0.7c1.2,0,1.5-0.7,3-0.7
		c1.8,0,1.9,0.7,3,0.7c1.2,0,1.4-0.7,3.4-0.7c1.1,0,2.3,0.6,2.3,2c0,1.9,0,6.8,0,6.8c0,0.7-0.6,1.3-1.3,1.3c-0.7,0-1.3-0.6-1.3-1.3
		v-5.6c0-0.6,0-1.9-1.1-1.9c0,0-2.7-0.4-2.7,4.3c0,0.1,0,3.2,0,3.2c0,0.7-0.6,1.3-1.3,1.3c-0.7,0-1.3-0.6-1.3-1.2v-5.6
		c0-0.4,0.1-1.9-1.1-1.9c-2.3,0-2.6,2.3-2.6,4.2v3.3c0,0.7-0.6,1.3-1.3,1.3c-0.7,0-1.3-0.6-1.3-1.2 M109,528.5c0-0.6,0.5-1,1.1-1
		l0,0l0,0h1.4c0.5,0,0.8-0.1,1.1-0.4c0.4-0.4,0.4-1,0.4-1.1c0-0.2,0-0.7-0.4-1c-0.3-0.3-0.6-0.4-1.1-0.4h-1.4c-1,0-1-0.2-1-0.8
		c0,0,0-1.2,1-1.5c0.3-0.1,0.6-0.2,1-0.2h1.7c0.6,0,1.1-0.4,1.3-1c0-0.1,0.1-0.3,0.1-0.4c0-0.7-0.6-1.3-1.3-1.3h-1.6
		c-0.2,0-0.5,0-0.7,0c-0.8,0.1-1.4,0.3-2,0.5c-2.5,1.1-2.6,3.4-2.6,3.4l0,0c-0.1,0.8-0.3,1.2-1.1,1.2c-0.4,0-0.7,0.1-0.9,0.4
		c-0.4,0.4-0.4,1-0.4,1l0,0c0,1.3,1.2,1.5,1.2,1.5c0.6,0,1,0.5,1,1.1c0,0,0,2.9,0,4.4c0,0.5,0.1,0.9,0.4,1.2
		c0.4,0.4,0.8,0.4,0.9,0.4h0.6c0,0,0.4,0,0.7-0.2c0.3-0.2,0.6-0.6,0.6-1.3 M118.3,532.7c0.1,0.2,0.1,0.4,0.1,0.7
		c0,1.3-0.7,1.8-1,2.1c-0.8,0.7-2.1,0.7-2.1,0.7h-0.7c-0.4,0-0.9,0.3-0.9,0.8s0.4,0.8,0.9,0.8h0.6c0,0,0.9,0,1.8-0.3s2.2-1,3.1-2.6
		c0.2-0.4,2-4.4,3.3-7.4l1-2.2c0.1-0.1,0.1-0.3,0-0.4c0-0.1-0.1-0.3-0.3-0.3c-0.3-0.1-0.6-0.1-1,0s-0.7,0.4-0.8,0.6
		c0,0-1.5,3.2-1.6,3.5c-0.3,0.6-0.6,0.9-1,0.9s-0.6,0-1.2-1c0-0.1-1.7-2.9-1.9-3.4c-0.1-0.3-0.5-0.5-0.8-0.6c-0.4-0.1-0.8-0.1-1.1,0
		c-0.2,0.1-0.3,0.2-0.3,0.4c0,0.1,0,0.3,0,0.4C114.6,525.3,118.1,532.2,118.3,532.7"/>
</g>
<g>
	<path d="M115.2,537.9h-0.6c-0.6,0-1-0.4-1-0.9c0-0.5,0.5-0.9,1-0.9h0.7c0,0,1.3,0,2-0.7c0,0,0.1-0.1,0.1-0.1
		c0.3-0.3,0.9-0.8,0.9-1.9c0-0.3,0-0.5-0.1-0.7l0,0c-0.3-0.7-3.4-6.7-3.8-7.2l-0.1,0V525c0-0.3,0.2-0.4,0.4-0.5
		c0.3-0.1,0.8-0.1,1.2,0c0.2,0.1,0.7,0.3,0.9,0.7c0.1,0.3,0.7,1.3,1.2,2.1c0.6,1,0.7,1.2,0.7,1.3c0.6,0.9,0.7,0.9,1.1,0.9
		c0.3,0,0.6-0.3,0.9-0.8c0.1-0.3,1.5-3.4,1.6-3.5c0.1-0.3,0.5-0.6,0.9-0.7c0.4-0.1,0.7-0.1,1,0c0.2,0,0.4,0.2,0.4,0.4
		c0.1,0.1,0.1,0.4,0,0.5l-1,2.2c-1.3,2.9-3.1,7-3.3,7.4c-0.9,1.6-2.2,2.3-3.2,2.7C116.1,537.9,115.2,537.9,115.2,537.9z
		 M114.6,536.3c-0.3,0-0.8,0.2-0.8,0.7c0,0.5,0.4,0.7,0.8,0.7h0.6c0,0,0.9,0,1.8-0.3c0.9-0.3,2.2-1,3-2.5c0.2-0.4,2-4.3,3.3-7.4
		l1-2.2c0.1-0.1,0.1-0.2,0-0.2l0,0v0c0,0-0.1-0.2-0.2-0.2l0,0c-0.3-0.1-0.6-0.1-0.9,0s-0.6,0.4-0.7,0.5c-0.5,1.1-1.5,3.3-1.6,3.5
		c-0.3,0.7-0.7,1-1.1,1c-0.5,0-0.7,0-1.3-1.1l0,0v0c0-0.1-0.4-0.7-0.7-1.2c-0.5-0.9-1.1-1.8-1.2-2.1c-0.1-0.3-0.6-0.5-0.7-0.5
		c-0.4-0.1-0.8-0.1-1,0c-0.2,0.1-0.2,0.2-0.2,0.3v0.3c0.6,0.6,3.8,7,3.9,7.3l0,0c0.1,0.2,0.1,0.4,0.1,0.7c0,1.2-0.6,1.8-0.9,2.1
		c0,0-0.1,0.1-0.1,0.1c-0.8,0.7-2.1,0.7-2.2,0.7H114.6z M75.8,537.4c-4.5,0-8-3.5-8-8s3.5-8,8-8c4.4,0,8,3.6,8,8
		C83.8,533.9,80.3,537.4,75.8,537.4z M75.8,521.6c-4.4,0-7.8,3.4-7.8,7.8s3.4,7.8,7.8,7.8c4.4,0,7.8-3.4,7.8-7.8
		C83.6,525.1,80.1,521.6,75.8,521.6z M61.4,535.2c-1.5,0-3.4-0.4-3.4-0.4l0,0l-0.2-0.1c-0.3,0-0.6-0.1-0.9-0.2
		c-0.3-0.1-0.9-0.5-0.7-1.2c0.1-0.2,0.2-0.5,0.5-0.6c0.5-0.3,1.4,0,1.5,0l0,0c0,0,1.5,0.3,2.1,0.4c1.8,0.2,2.2-0.7,2.3-0.9
		c0.1-0.3-0.1-0.8-0.5-1l-1.9-0.8c-0.5-0.3-1.1-0.5-1.2-0.5c-0.1,0-0.1,0-0.3-0.1c-0.2-0.1-0.6-0.2-0.9-0.2l0,0l0,0
		c-0.7-0.6-1-1.3-1-2.1c0-1.1,0.5-2,1.6-2.6c0.7-0.4,1.4-0.6,1.9-0.6c1.5-0.2,2.9-0.1,4.3,0.3c0.1,0,0.1,0,0.1,0
		c0.9,0.3,0.9,0.8,0.9,1.1l0,0.1c0,0.1-0.1,0.5-0.4,0.6c-0.2,0.1-0.4,0.1-0.9,0c0,0-0.1,0-0.2-0.1c0,0-0.1,0-0.1,0l0,0
		c-0.4-0.2-0.8-0.3-2-0.3c-0.8,0-1.3,0.1-1.5,0.5c-0.1,0.1-0.3,0.4-0.3,0.7c0,0.1,0.1,0.6,1.5,1.2c0.1,0,0.3,0.1,0.5,0.1
		c0.2,0.1,0.3,0.1,0.5,0.2c0.8,0.2,1.7,0.5,2,0.7c1.1,0.7,1.3,1.4,1.4,2.1c0.1,0.6-0.1,1.5-0.2,1.8C64.9,535,62.4,535.2,61.4,535.2z
		 M58,534.6c0.2,0,2,0.4,3.4,0.4c1,0,3.3-0.2,4.2-1.9c0.1-0.2,0.3-1,0.2-1.6c-0.1-0.6-0.3-1.2-1.4-1.9c-0.3-0.2-1.1-0.5-2-0.7
		c-0.2,0-0.4-0.1-0.5-0.2c-0.2-0.1-0.4-0.1-0.5-0.1l0,0c-1.5-0.6-1.7-1.2-1.7-1.4c0-0.5,0.2-0.7,0.3-0.9c0.4-0.5,1.1-0.5,1.7-0.5
		c1,0,1.6,0.1,2,0.3c0.1,0,0.1,0,0.2,0.1c0,0,0.1,0,0.1,0c0.4,0.1,0.6,0.1,0.8,0c0.2-0.1,0.2-0.3,0.2-0.4l0-0.1c0-0.2,0-0.6-0.7-0.8
		c0,0-0.1,0-0.1,0c-1.3-0.4-2.8-0.5-4.2-0.3c-0.4,0-1.1,0.2-1.8,0.6c-1,0.6-1.4,1.4-1.4,2.4c0,0.7,0.3,1.4,0.9,1.9
		c0.4,0.1,0.7,0.2,0.9,0.2c0.1,0,0.2,0.1,0.2,0.1l0,0c0,0,0.6,0.2,1.2,0.5L62,531c0.6,0.2,0.8,0.8,0.7,1.2c-0.1,0.3-0.6,1.3-2.5,1.1
		c-0.6-0.1-2.1-0.4-2.1-0.4c0,0-0.9-0.3-1.3,0c-0.2,0.1-0.3,0.3-0.4,0.5c-0.2,0.7,0.5,0.9,0.5,1c0.3,0.1,0.6,0.2,0.9,0.2l0,0
		L58,534.6z M87.4,534.7c-0.7,0-1.4-0.6-1.4-1.3h0.2c0,0.6,0.6,1.1,1.2,1.1c0.6,0,1.2-0.6,1.2-1.2V530c0-1.8,0.3-4.3,2.7-4.3
		c0.3,0,0.6,0.1,0.8,0.3c0.4,0.4,0.4,1.2,0.4,1.6v5.7c0,0.6,0.6,1.1,1.2,1.1c0.6,0,1.2-0.5,1.2-1.2V530c0-1.9,0.4-3.2,1.2-3.9
		c0.8-0.6,1.6-0.5,1.6-0.5c0,0,0,0,0,0c1.2,0,1.2,1.4,1.2,2v5.6c0,0.6,0.6,1.2,1.2,1.2c0.6,0,1.2-0.6,1.2-1.2v-6.8
		c0-1.3-1.1-1.9-2.2-1.9c-1.1,0-1.6,0.2-2.1,0.4c-0.4,0.2-0.7,0.3-1.3,0.3c-0.5,0-0.8-0.1-1.1-0.3c-0.4-0.2-0.9-0.4-1.9-0.4
		c-0.8,0-1.2,0.2-1.6,0.4c-0.4,0.2-0.8,0.3-1.4,0.3c-0.5,0-0.9-0.2-1.2-0.4c-0.3-0.2-0.6-0.3-1-0.3c-0.4,0-0.7,0.1-0.9,0.3
		c-0.3,0.3-0.3,0.8-0.3,0.9l-0.2,0c0,0,0-0.6,0.3-1c0.2-0.3,0.6-0.4,1.1-0.4c0.4,0,0.8,0.2,1.1,0.3c0.3,0.2,0.7,0.4,1.1,0.4
		c0.5,0,0.9-0.2,1.3-0.3c0.4-0.2,0.9-0.4,1.7-0.4c1,0,1.5,0.2,1.9,0.4c0.3,0.1,0.6,0.3,1.1,0.3c0.5,0,0.8-0.1,1.2-0.3
		c0.5-0.2,1.1-0.4,2.2-0.4c1.2,0,2.4,0.7,2.4,2.1v6.8c0,0.8-0.6,1.4-1.4,1.4c-0.8,0-1.4-0.6-1.4-1.4v-5.6c0-0.6,0-1.8-1-1.8
		c0,0-0.8-0.1-1.4,0.5c-0.8,0.7-1.2,1.9-1.2,3.7v3.2c0,0.8-0.6,1.4-1.4,1.4c-0.7,0-1.4-0.6-1.4-1.3l0-5.7c0-0.3,0-1.1-0.4-1.5
		c-0.2-0.2-0.4-0.2-0.6-0.2c-2.2,0-2.5,2.2-2.5,4.1v3.3C88.8,534.1,88.2,534.7,87.4,534.7z M107.7,534.6h-0.6c-0.5,0-0.8-0.2-1-0.4
		c-0.3-0.3-0.4-0.7-0.4-1.3v-4.4c0-0.6-0.4-1-0.9-1c0,0-1.3-0.2-1.3-1.6c0,0,0-0.6,0.4-1.1c0.2-0.3,0.5-0.4,1-0.4
		c0.7,0,0.9-0.3,1-1.1c0,0,0.1-2.4,2.7-3.5c0.6-0.2,1.2-0.4,2-0.5l2.3,0c0.8,0,1.4,0.6,1.4,1.4c0,0.1,0,0.1-0.1,0.2
		c0,0.1,0,0.1,0,0.2l0,0c-0.2,0.7-0.8,1.1-1.4,1.1h-1.7c-0.4,0-0.7,0.1-1,0.2c-0.9,0.3-0.9,1.4-0.9,1.4c0,0.6,0,0.7,0.9,0.7h1.4
		c0.5,0,0.9,0.1,1.2,0.4c0.4,0.3,0.4,0.9,0.4,1.1c0,0.2,0,0.8-0.4,1.2c-0.3,0.3-0.6,0.4-1.2,0.4h-1.4c-0.6,0-1,0.4-1,0.9h-0.2
		c0-0.6,0.5-1.1,1.2-1.1h1.4c0.5,0,0.8-0.1,1-0.4c0.3-0.3,0.4-0.8,0.4-1c0-0.2,0-0.6-0.4-0.9c-0.3-0.3-0.6-0.4-1-0.4h-1.4
		c-1.1,0-1.1-0.3-1.1-0.9c0,0,0-1.3,1.1-1.6c0.3-0.1,0.6-0.2,1-0.2h1.7c0.5,0,1-0.4,1.2-0.9c0-0.1,0-0.1,0.1-0.2c0-0.1,0-0.1,0-0.2
		c0-0.6-0.6-1.2-1.2-1.2h-2.3c-0.8,0.1-1.4,0.3-2,0.5c-2.4,1.1-2.5,3.3-2.5,3.3c-0.1,0.8-0.3,1.3-1.2,1.3c-0.4,0-0.6,0.1-0.8,0.4
		c-0.4,0.4-0.4,0.9-0.4,0.9c0,1.2,1.1,1.4,1.1,1.4c0,0,0,0,0,0c0.6,0,1.1,0.5,1.1,1.2v4.4c0,0.5,0.1,0.9,0.4,1.1
		c0.2,0.2,0.4,0.4,0.8,0.4h0.6c0,0,0.4,0,0.6-0.2c0.2-0.1,0.6-0.5,0.6-1.2h0.2c0,0.8-0.4,1.2-0.6,1.4
		C108.1,534.6,107.7,534.6,107.7,534.6z M75.8,532.3c-1.6,0-2.9-1.3-2.9-2.9s1.3-2.9,2.9-2.9s2.9,1.3,2.9,2.9
		C78.7,531.1,77.5,532.3,75.8,532.3z M75.8,526.7c-1.5,0-2.7,1.2-2.7,2.7s1.2,2.7,2.7,2.7c1.5,0,2.7-1.2,2.7-2.7
		C78.5,527.9,77.3,526.7,75.8,526.7z"/>
</g>
<g>
	<path d="M88.9,407.3c1.6,0,3,0.6,4,1.7c1,1,1.7,2.5,1.7,4c0,1.6-0.6,3-1.7,4l0,0c-1,1-2.5,1.7-4,1.7c-1.6,0-3-0.6-4-1.7l0,0l0,0
		c-1-1-1.7-2.5-1.7-4c0-1.6,0.6-3,1.7-4l0,0C85.9,407.9,87.4,407.3,88.9,407.3"/>
</g>
<g>
	<path d="M91.6,186.3l11,15.7l0,0l0,0c0.3,0.4,0.4,0.9,0.3,1.3c-0.1,0.4-0.3,0.8-0.7,1.1l0,0l0,0c-0.4,0.3-0.9,0.4-1.3,0.3
		c-0.4-0.1-0.8-0.3-1.1-0.7l0,0l0,0l-9.6-13.7L80.5,204l0,0l0,0c-0.3,0.4-0.7,0.6-1.1,0.7c-0.4,0.1-0.9,0-1.3-0.3l0,0l0,0
		c-0.4-0.3-0.6-0.7-0.7-1.1c-0.1-0.4,0-0.9,0.3-1.3l0,0l11-15.7c0.1-0.2,0.3-0.3,0.4-0.4l0,0c0.3-0.2,0.7-0.3,1.1-0.3l0,0
		c0.4,0,0.7,0.1,1.1,0.3l0,0C91.3,185.9,91.5,186.1,91.6,186.3L91.6,186.3z"/>
</g>
<g>
	<path d="M91.6,267.2h-2.2h-0.5v-0.5v-8c0-0.7-0.1-1.4-0.2-1.9s-0.3-0.9-0.5-1.2l0,0c-0.2-0.3-0.4-0.5-0.7-0.6
		c-0.3-0.1-0.8-0.2-1.3-0.2c-0.4,0-0.8,0.1-1.1,0.3c-0.3,0.2-0.7,0.5-1,0.8c-0.3,0.4-0.5,0.8-0.7,1.3c-0.1,0.5-0.2,1-0.2,1.6v8v0.5
		h-0.5h-2.2H80v-0.5v-8.3c0-1.3-0.2-2.2-0.7-2.8c-0.4-0.6-1.1-0.8-2-0.8c-0.4,0-0.8,0.1-1.1,0.3c-0.3,0.2-0.6,0.4-0.9,0.8
		c-0.3,0.4-0.5,0.8-0.6,1.3s-0.2,1-0.2,1.7v8v0.5H74h-2.2h-0.5V267v-13.9v-0.5h0.5H74h0.5v0.5v0.8c0.3-0.4,0.7-0.7,1.1-0.9
		c0.8-0.5,1.7-0.7,2.8-0.7c0.5,0,1,0.1,1.5,0.2c0.5,0.1,0.9,0.4,1.3,0.7l0,0c0.4,0.3,0.7,0.6,1,1c0.1,0.1,0.2,0.3,0.2,0.4
		c0.5-0.6,1-1.1,1.6-1.5c0.9-0.5,1.8-0.8,3-0.8c1.7,0,3,0.5,3.8,1.6c0.8,1,1.3,2.6,1.3,4.6v8.6v0.5h-0.5V267.2z M108.9,252.9
		l-6.4,16.2l0,0c-0.6,1.5-1.3,2.7-2.2,3.4c-0.9,0.8-1.9,1.2-3.1,1.2c-0.3,0-0.6,0-0.9,0l0,0c-0.3,0-0.5-0.1-0.7-0.1l-0.3-0.1v-0.4
		v-2v-0.7l0.6,0.2c0.2,0.1,0.4,0.1,0.6,0.2l0,0c0.2,0,0.4,0,0.5,0c0.4,0,0.8-0.1,1.2-0.4c0.4-0.3,0.7-0.7,0.9-1.3l0,0l1-2.5
		l-5.4-13.7l-0.3-0.7h0.7h2.5h0.3l0.1,0.3l3.6,10.4l3.8-10.4l0.1-0.3h0.3h2.3h0.7L108.9,252.9z"/>
</g>
<g>
	<path d="M102.6,315.2l-11,15.7l0,0c-0.1,0.2-0.3,0.3-0.4,0.4l0,0c-0.3,0.2-0.7,0.3-1.1,0.3l0,0c-0.4,0-0.7-0.1-1.1-0.3l0,0
		c-0.2-0.1-0.3-0.3-0.4-0.4l-11-15.7l0,0c-0.3-0.4-0.4-0.9-0.3-1.3s0.3-0.8,0.7-1.1l0,0l0,0c0.4-0.3,0.9-0.4,1.3-0.3
		s0.8,0.3,1.1,0.7l0,0l0,0l9.6,13.7l9.6-13.7l0,0l0,0c0.3-0.4,0.7-0.6,1.1-0.7s0.9,0,1.3,0.3l0,0l0,0c0.4,0.3,0.6,0.7,0.7,1.1
		C103,314.3,102.9,314.8,102.6,315.2L102.6,315.2L102.6,315.2z"/>
</g>
</svg>
