<svg width="597px" height="111px" viewBox="0 0 597 111" version="1.1" xmlns="http://www.w3.org/2000/svg" xmlns:xlink="http://www.w3.org/1999/xlink">
	<!-- Generator: Sketch 47.1 (45422) - http://www.bohemiancoding.com/sketch -->
	<desc>Created with Sketch.</desc>
	<defs></defs>
	<g id="Page-1" stroke="none" stroke-width="1" fill="none" fill-rule="evenodd">
		<g id="logo" fill-rule="nonzero" fill="#000000">
			<g id="Group">
				<path d="M65.1,72.8 L6.9,72.8 C3,72.8 1.1,71 1.1,67.4 C1.1,63.8 3,62 6.9,62 L65.1,62 C68.1,62 70.7,61.1 72.9,59.2 C75.1,57.3 76.1,55.1 76.1,52.3 C76.1,49.5 75,47.3 72.9,45.3 C70.7,43.4 68.1,42.4 65.1,42.4 L23.7,42.4 C17.4,42.4 12.1,40.4 7.6,36.5 C3.1,32.5 0.9,27.7 0.9,21.8 C0.9,16.1 3.1,11.3 7.6,7.3 C12.1,3.3 17.4,1.3 23.6,1.3 L64.9,1.3 C68.8,1.3 70.7,3.1 70.7,6.7 C70.7,10.3 68.8,12.2 64.9,12.2 L23.7,12.2 C20.7,12.2 18.1,13.1 15.9,15 C13.7,16.9 12.7,19.1 12.7,21.9 C12.7,24.7 13.8,26.9 15.9,28.9 C18.1,30.8 20.7,31.8 23.7,31.8 L65,31.8 C71.3,31.8 76.6,33.8 81.1,37.7 C85.6,41.7 87.8,46.5 87.8,52.4 C87.8,58.3 85.5,63.3 80.8,67.3 C76.3,70.9 71,72.8 65.1,72.8 L65.1,72.8 Z" id="Shape"></path>
				<path d="M178.5,70 C175,71.9 171.1,72.8 166.9,72.8 L125.6,72.8 C119.4,72.8 114.1,70.8 109.6,66.8 C105.1,62.8 102.9,58 102.9,52.3 L102.9,6.7 C102.9,3.1 104.8,1.3 108.7,1.3 C112.6,1.3 114.5,3.1 114.5,6.7 L114.5,52.3 C114.5,55.1 115.6,57.3 117.7,59.2 C119.9,61.1 122.5,62 125.5,62 L166.8,62 C169.8,62 172.4,61.1 174.6,59.2 C176.8,57.3 177.8,55.1 177.8,52.3 L177.8,6.7 C177.8,3.1 179.7,1.3 183.6,1.3 C187.5,1.3 189.4,3.1 189.4,6.7 L189.4,67.6 C189.4,71.2 187.5,73 183.6,73 C181.2,72.8 179.4,71.8 178.5,70 L178.5,70 Z" id="Shape"></path>
				<path d="M218.5,4 C222,2.1 225.9,1.2 230.1,1.2 L257.3,1.2 C263.6,1.2 268.9,3.2 273.4,7.1 C277.9,11.1 280.1,15.9 280.1,21.8 L280.1,67.4 C280.1,71 278.2,72.8 274.3,72.8 C270.4,72.8 268.5,71 268.5,67.4 L268.5,21.8 C268.5,19 267.4,16.8 265.3,14.9 C263.1,13 260.5,12.1 257.5,12.1 L230.3,12.1 C227.3,12.1 224.7,13 222.5,14.9 C220.3,16.8 219.3,19 219.3,21.8 L219.3,67.4 C219.3,71 217.4,72.8 213.5,72.8 C209.6,72.8 207.7,71 207.7,67.4 L207.7,6.5 C207.7,2.9 209.6,1.1 213.5,1.1 C215.8,1.2 217.6,2.2 218.5,4 L218.5,4 Z" id="Shape"></path>
				<path d="M416.2,8.5 L387.8,69.5 C386.7,72 384.9,73.3 382.5,73.3 C380,73.3 378.2,72.1 377,69.5 L354.3,20.2 L331.4,69.5 C330.3,72 328.5,73.3 326.1,73.3 C323.6,73.3 321.8,72.1 320.7,69.5 L292.7,8.6 C292.4,7.9 292.1,7.1 292.1,6.4 C292.1,2.9 294.1,1.1 298,1.1 C300.5,1.1 302.3,2.2 303.3,4.3 L326.2,53.6 L348.8,4.3 C349.9,1.8 351.7,0.6 354.3,0.6 C356.8,0.6 358.4,1.8 359.6,4.3 L382.5,53.6 L405.4,4.3 C406.4,2.1 408.1,1.1 410.5,1.1 C414.4,1.1 416.4,2.9 416.4,6.4 C416.6,7.1 416.5,7.7 416.2,8.5 L416.2,8.5 Z" id="Shape"></path>
				<path d="M501,42.3 L448.5,42.3 C445.5,42.3 442.9,43.3 440.7,45.2 C438.5,47.1 437.5,49.5 437.5,52.2 C437.5,54.9 438.6,57.2 440.7,59.1 C442.9,61 445.5,61.9 448.5,61.9 L489.9,61.9 C492.9,61.9 495.5,61 497.7,59.1 C499.9,57.2 500.9,55 500.9,52.2 L500.9,42.3 L501,42.3 Z M501.5,69.9 C498,71.8 494.1,72.8 489.9,72.8 L448.5,72.8 C442.3,72.8 437,70.8 432.5,66.8 C428,62.8 425.8,58 425.8,52.3 C425.8,46.5 428,41.7 432.5,37.6 C437,33.6 442.3,31.6 448.6,31.6 L501,31.6 L501,21.9 C501,19.1 499.9,16.9 497.8,15 C495.6,13.1 493,12.2 490,12.2 L448.6,12.2 C444.7,12.2 442.8,10.4 442.8,6.7 C442.8,3.1 444.7,1.3 448.6,1.3 L490,1.3 C496.3,1.3 501.6,3.3 506.1,7.2 C510.6,11.2 512.8,16 512.8,21.9 L512.8,67.5 C512.8,71.1 510.9,72.9 507,72.9 C504.1,72.8 502.4,71.8 501.5,69.9 L501.5,69.9 Z" id="Shape"></path>
				<path d="M592.1,9.2 L564.4,71 C564.3,71.4 564.1,71.9 563.8,72.3 L548,107.3 C546.9,109.5 545.2,110.7 542.6,110.7 C538.7,110.7 536.7,108.9 536.7,105.2 C536.7,104.4 536.8,103.7 537.1,103 L552.1,69.4 L525,9.2 C524.7,8.4 524.6,7.6 524.6,6.9 C524.6,3.3 526.6,1.4 530.5,1.4 C533,1.4 534.8,2.5 535.9,4.8 L558.6,55.4 L581.5,4.8 C582.5,2.6 584.3,1.4 586.8,1.4 C590.7,1.4 592.7,3.2 592.7,6.9 C592.7,7.6 592.5,8.4 592.1,9.2 L592.1,9.2 Z" id="Shape"></path>
				<path d="M589.3,65.6 C589.5,65.6 589.9,65.6 590.1,65.6 C590.3,65.6 590.5,65.5 590.8,65.5 C591,65.4 591.1,65.3 591.2,65.2 C591.3,65 591.4,64.8 591.4,64.4 C591.4,64.2 591.3,64 591.3,63.7 C591.2,63.6 591.1,63.5 590.9,63.4 C590.8,63.3 590.6,63.3 590.3,63.2 C590.1,63.2 589.9,63.2 589.6,63.2 L588,63.2 L588,65.7 L589.3,65.7 L589.3,65.6 Z M589.9,62 C590.8,62 591.6,62.2 592,62.6 C592.4,63 592.7,63.5 592.7,64.3 C592.7,65 592.5,65.5 592.1,65.9 C591.7,66.2 591.2,66.5 590.6,66.5 L592.8,70 L591.5,70 L589.4,66.6 L588.1,66.6 L588.1,70 L586.9,70 L586.9,62.1 L589.9,62.1 L589.9,62 L589.9,62 Z M584.3,68.3 C584.6,69 585,69.6 585.4,70.1 C585.8,70.7 586.5,71 587.2,71.3 C587.9,71.6 588.7,71.7 589.4,71.7 C590.2,71.7 591,71.6 591.6,71.3 C592.3,71 592.8,70.6 593.4,70.1 C593.8,69.5 594.3,69 594.5,68.3 C594.8,67.6 594.9,66.8 594.9,66 C594.9,65.2 594.8,64.4 594.5,63.8 C594.2,63.1 593.8,62.5 593.4,62 C593,61.4 592.3,61.1 591.6,60.8 C590.9,60.5 590.1,60.4 589.4,60.4 C588.6,60.4 587.8,60.5 587.2,60.8 C586.6,61.1 586,61.5 585.4,62 C585,62.6 584.5,63.1 584.3,63.8 C584,64.5 583.9,65.3 583.9,66 C583.9,66.8 584.1,67.6 584.3,68.3 L584.3,68.3 Z M583.2,63.3 C583.5,62.5 584.1,61.7 584.7,61.2 C585.4,60.6 586,60.1 586.8,59.7 C587.6,59.4 588.5,59.1 589.4,59.1 C590.3,59.1 591.2,59.3 592,59.7 C592.8,60 593.6,60.5 594.1,61.2 C594.7,61.8 595.2,62.5 595.6,63.3 C595.9,64.1 596.2,65 596.2,66 C596.2,67 596,67.9 595.6,68.7 C595.3,69.5 594.7,70.3 594.1,70.8 C593.4,71.4 592.8,71.9 592,72.3 C591.2,72.6 590.3,72.9 589.4,72.9 C588.5,72.9 587.6,72.7 586.8,72.3 C586,72 585.2,71.5 584.7,70.8 C584,70.2 583.6,69.5 583.2,68.7 C582.9,67.9 582.6,67 582.6,66 C582.6,65 582.9,64.1 583.2,63.3 L583.2,63.3 Z" id="Shape"></path>
			</g>
		</g>
	</g>
</svg>
