<?xml version="1.0" encoding="utf-8"?>
<!-- Generator: Adobe Illustrator 20.0.0, SVG Export Plug-In . SVG Version: 6.00 Build 0)  -->
<svg version="1.1" id="Layer_1" 
	xmlns="http://www.w3.org/2000/svg" 
	xmlns:xlink="http://www.w3.org/1999/xlink" x="0px" y="0px" viewBox="0 0 525.7 572" style="enable-background:new 0 0 599.4 1431;" xml:space="preserve" 
	xmlns:pulse="-">
	<style type="text/css">
	.st0{fill:none;}
	</style>
	<g>
		<path d="M119.6,276.4c-22.9,0-44.4,8.9-60.5,25.1C42.9,317.6,34,339.1,34,362s8.9,44.4,25.1,60.5c16.2,16.2,37.6,25.1,60.5,25.1
		s44.4-8.9,60.5-25.1c16.2-16.2,25.1-37.6,25.1-60.5s-8.9-44.4-25.1-60.5C163.9,285.3,142.4,276.4,119.6,276.4z M119.6,444.7
		c-45.6,0-82.7-37.1-82.7-82.7s37.1-82.7,82.7-82.7s82.7,37.1,82.7,82.7C202.3,407.6,165.2,444.7,119.6,444.7z"/>
		<path d="M119.6,324c-21,0-38,17.1-38,38s17.1,38,38,38c21,0,38-17.1,38-38S140.5,324,119.6,324z M119.6,397.1
		c-19.4,0-35.2-15.8-35.2-35.2s15.8-35.2,35.2-35.2s35.2,15.8,35.2,35.2S139,397.1,119.6,397.1z"/>
		<path d="M119.6,317.2c-24.7,0-44.8,20.1-44.8,44.8s20.1,44.8,44.8,44.8s44.8-20.1,44.8-44.8C164.4,337.3,144.3,317.2,119.6,317.2z
		 M119.6,404c-23.1,0-42-18.8-42-42s18.8-42,42-42c23.1,0,42,18.8,42,42S142.7,404,119.6,404z"/>
		<path d="M119.6,310.4C91.1,310.4,68,333.5,68,362s23.1,51.6,51.6,51.6s51.6-23.1,51.6-51.6S148,310.4,119.6,310.4z M119.6,410.8
		c-26.9,0-48.8-21.9-48.8-48.8s21.9-48.8,48.8-48.8s48.8,21.9,48.8,48.8C168.4,388.9,146.5,410.8,119.6,410.8z"/>
		<path d="M119.6,303.6c-32.2,0-58.4,26.2-58.4,58.4s26.2,58.4,58.4,58.4S178,394.2,178,362S151.8,303.6,119.6,303.6z M119.6,417.6
		c-30.7,0-55.6-25-55.6-55.6s24.9-55.6,55.6-55.6s55.6,24.9,55.6,55.6S150.2,417.6,119.6,417.6z"/>
		<path d="M119.6,296.7c-36,0-65.3,29.3-65.3,65.3s29.3,65.3,65.3,65.3s65.3-29.3,65.3-65.3S155.5,296.7,119.6,296.7z M119.6,424.4
		c-34.4,0-62.4-28-62.4-62.4s28-62.4,62.4-62.4s62.4,28,62.4,62.4S154,424.4,119.6,424.4z"/>
		<path d="M119.6,289.9c-39.7,0-72.1,32.3-72.1,72.1c0,39.7,32.3,72.1,72.1,72.1c39.7,0,72.1-32.3,72.1-72.1S159.3,289.9,119.6,289.9
		z M119.6,431.2c-38.1,0-69.2-31.1-69.2-69.2s31.1-69.2,69.2-69.2s69.2,31.1,69.2,69.2S157.7,431.2,119.6,431.2z"/>
		<path d="M119.6,283.1c-43.5,0-78.9,35.4-78.9,78.9s35.4,78.9,78.9,78.9s78.9-35.4,78.9-78.9C198.4,318.5,163,283.1,119.6,283.1z
		 M119.6,438c-41.9,0-76-34.1-76-76s34.1-76,76-76s76,34.1,76,76S161.5,438,119.6,438z"/>
		<path d="M239,279.5c-0.2-21.3-0.2-42.6,0-63.7c0.2-46,0.4-90.8-3-131.1c-1.8-20.9-6.7-42-23.5-58.1C195.9,10.6,167.7,0,119.6,0
		s-76.3,10.6-93,26.6S4.9,63.8,3.2,84.7c-3.4,40.2-3.2,85.1-3,131c0.1,21.1,0.2,42.5,0,63.7c-0.4,30.9-0.2,60.2,0.6,88.1
		c0.8,28,2.1,54.6,4.2,80.1c3.7,47.1,6.5,77.9,21.4,97.4c15.1,19.6,41.8,27.1,93.3,27.1s78.2-7.4,93.3-27.1
		c14.9-19.5,17.7-50.2,21.4-97.4c2-25.4,3.4-52,4.2-80.1C239.2,339.6,239.3,310.4,239,279.5z M232.7,367.4
		c-0.8,27.7-2.1,54.2-4.2,79.8c-3.6,46.1-6.3,76.3-20.3,94.4c-13.8,18-39.3,24.8-88.7,24.8s-75-6.8-88.7-24.8
		c-13.9-18.2-16.6-48.3-20.3-94.4c-2-25.5-3.4-52-4.2-79.8c-0.8-27.9-0.9-57-0.6-87.9c0.2-21.3,0.2-42.7,0-63.8
		c-0.2-45.8-0.4-90.3,3-130.6c1.7-19.8,6.2-39.7,21.7-54.5c15.6-14.9,42.5-25,89-25s73.4,10,89,25c15.5,14.8,20,34.7,21.7,54.5
		c3.4,40.2,3.2,84.8,3,130.6c-0.1,21.1-0.2,42.5,0,63.8C233.7,310.3,233.5,339.5,232.7,367.4z"/>
		<path d="M186.2,212.9c1.2,0,2.2-0.5,3-1.2c0.8-0.8,1.2-1.8,1.2-3s-0.5-2.2-1.2-3c-0.8-0.8-1.8-1.2-3-1.2s-2.2,0.5-3,1.2
		c-0.8,0.8-1.2,1.8-1.2,3s0.5,2.2,1.2,3C184,212.4,185.1,212.9,186.2,212.9z M184.1,206.6c0.6-0.6,1.3-0.9,2.1-0.9s1.6,0.3,2.1,0.9
		c0.6,0.6,0.9,1.3,0.9,2.1s-0.3,1.6-0.9,2.1c-0.6,0.6-1.3,0.9-2.1,0.9s-1.6-0.3-2.1-0.9c-0.6-0.6-0.9-1.3-0.9-2.1
		C183.2,207.9,183.6,207.1,184.1,206.6z"/>
		<path d="M186.2,191.3c1.2,0,2.2-0.5,3-1.2c0.8-0.8,1.2-1.8,1.2-3s-0.5-2.2-1.2-3c-0.8-0.8-1.8-1.2-3-1.2s-2.2,0.5-3,1.2
		c-0.8,0.8-1.2,1.8-1.2,3s0.5,2.2,1.2,3C184,190.8,185.1,191.3,186.2,191.3z M184.1,185c0.6-0.6,1.3-0.9,2.1-0.9s1.6,0.3,2.1,0.9
		c0.6,0.6,0.9,1.3,0.9,2.1s-0.3,1.6-0.9,2.1c-0.6,0.6-1.3,0.9-2.1,0.9s-1.6-0.3-2.1-0.9c-0.6-0.6-0.9-1.3-0.9-2.1
		C183.2,186.3,183.6,185.5,184.1,185z"/>
		<path d="M186.2,169.7c1.2,0,2.2-0.5,3-1.2c0.8-0.8,1.2-1.8,1.2-3s-0.5-2.2-1.2-3c-0.8-0.8-1.8-1.2-3-1.2s-2.2,0.5-3,1.2
		c-0.8,0.8-1.2,1.8-1.2,3s0.5,2.2,1.2,3C184,169.3,185.1,169.7,186.2,169.7z M184.1,163.4c0.6-0.6,1.3-0.9,2.1-0.9s1.6,0.3,2.1,0.9
		c0.6,0.6,0.9,1.3,0.9,2.1s-0.3,1.6-0.9,2.1c-0.6,0.6-1.3,0.9-2.1,0.9s-1.6-0.3-2.1-0.9c-0.6-0.6-0.9-1.3-0.9-2.1
		C183.2,164.7,183.6,164,184.1,163.4z"/>
		<path d="M186.2,148.2c1.2,0,2.2-0.5,3-1.2c0.8-0.8,1.2-1.8,1.2-3s-0.5-2.2-1.2-3c-0.8-0.8-1.8-1.2-3-1.2s-2.2,0.5-3,1.2
		c-0.8,0.8-1.2,1.8-1.2,3s0.5,2.2,1.2,3C184,147.7,185.1,148.2,186.2,148.2z M184.1,141.9c0.6-0.6,1.3-0.9,2.1-0.9s1.6,0.3,2.1,0.9
		c0.6,0.6,0.9,1.3,0.9,2.1s-0.3,1.6-0.9,2.1c-0.6,0.6-1.3,0.9-2.1,0.9s-1.6-0.3-2.1-0.9c-0.6-0.6-0.9-1.3-0.9-2.1
		C183.2,143.2,183.6,142.4,184.1,141.9z"/>
		<path d="M186.2,126.6c1.2,0,2.2-0.5,3-1.2c0.8-0.8,1.2-1.8,1.2-3s-0.5-2.2-1.2-3c-0.8-0.8-1.8-1.2-3-1.2s-2.2,0.5-3,1.2
		c-0.8,0.8-1.2,1.8-1.2,3s0.5,2.2,1.2,3C184,126.1,185.1,126.6,186.2,126.6z M184.1,120.3c0.6-0.6,1.3-0.9,2.1-0.9s1.6,0.3,2.1,0.9
		c0.6,0.6,0.9,1.3,0.9,2.1c0,0.8-0.3,1.6-0.9,2.1c-0.6,0.6-1.3,0.9-2.1,0.9s-1.6-0.3-2.1-0.9c-0.6-0.6-0.9-1.3-0.9-2.1
		C183.2,121.6,183.6,120.8,184.1,120.3z"/>
		<path d="M186.2,234.4c1.2,0,2.2-0.5,3-1.2c0.8-0.8,1.2-1.8,1.2-3s-0.5-2.2-1.2-3c-0.8-0.8-1.8-1.2-3-1.2s-2.2,0.5-3,1.2
		c-0.8,0.8-1.2,1.8-1.2,3s0.5,2.2,1.2,3C184,234,185.1,234.4,186.2,234.4z M184.1,228.1c0.6-0.6,1.3-0.9,2.1-0.9s1.6,0.3,2.1,0.9
		c0.6,0.6,0.9,1.3,0.9,2.1s-0.3,1.6-0.9,2.1c-0.6,0.6-1.3,0.9-2.1,0.9s-1.6-0.3-2.1-0.9c-0.6-0.6-0.9-1.3-0.9-2.1
		S183.6,228.7,184.1,228.1z"/>

		<g>
			<circle pulse:cmd="idle" pulse:initial="true" fill="#fff" cx="119.7" cy="362" r="33"/>
		</g>
	</g>
	<g>
		<path d="M489.9,0H346.5c-19.8,0-35.8,16-35.8,35.8v500.4c0,19.7,16,35.8,35.8,35.8h143.4c19.7,0,35.8-16,35.8-35.8V35.8
		C525.7,16,509.7,0,489.9,0z M489.9,569H346.5c-18.1,0-32.8-14.7-32.8-32.8V35.8c0-18.1,14.7-32.8,32.8-32.8h143.4
		c18.1,0,32.8,14.7,32.8,32.8v500.4C522.7,554.3,508,569,489.9,569z"/>
		<path d="M488.4,563H348c-15.6,0-28.3-12.7-28.3-28.3V37.3C319.7,21.7,332.4,9,348,9h140.5c15.5,0,28.2,12.7,28.2,28.2v497.5
		C516.7,550.3,504,563,488.4,563z M348,10c-15.1,0-27.3,12.2-27.3,27.3v497.4c0,15.1,12.2,27.3,27.3,27.3h140.4
		c15.1,0,27.3-12.2,27.3-27.3V37.2c0-15-12.2-27.2-27.2-27.2H348z"/>
		<g>
			<path class="st0" d="M497.2,150.5h-159c-1.1,0-2-0.9-2-2v-108c0-1.1,0.9-2,2-2h158.9c1.1,0,2,0.9,2,2v107.9
			C499.2,149.6,498.3,150.5,497.2,150.5z"/>
			<path d="M497.2,152h-159c-2,0-3.5-1.6-3.5-3.5v-108c0-2,1.6-3.5,3.5-3.5h158.9c2,0,3.5,1.6,3.5,3.5v107.9
			C500.7,150.4,499.1,152,497.2,152z M338.2,40c-0.3,0-0.5,0.2-0.5,0.5v107.9c0,0.3,0.2,0.5,0.5,0.5h158.9c0.3,0,0.5-0.2,0.5-0.5
			V40.5c0-0.3-0.2-0.5-0.5-0.5H338.2z"/>
		</g>
		<path d="M499.7,171h-163c-0.6,0-1-0.4-1-1s0.4-1,1-1h163c0.6,0,1,0.4,1,1S500.3,171,499.7,171z"/>
		<path d="M499.7,233h-163c-0.6,0-1-0.4-1-1s0.4-1,1-1h163c0.6,0,1,0.4,1,1S500.3,233,499.7,233z"/>
		<path d="M499.7,294h-163c-0.6,0-1-0.4-1-1s0.4-1,1-1h163c0.6,0,1,0.4,1,1S500.3,294,499.7,294z"/>
		<path d="M499.7,354h-163c-0.6,0-1-0.4-1-1s0.4-1,1-1h163c0.6,0,1,0.4,1,1S500.3,354,499.7,354z"/>
		<path d="M499.7,415h-163c-0.6,0-1-0.4-1-1s0.4-1,1-1h163c0.6,0,1,0.4,1,1S500.3,415,499.7,415z"/>
		<path d="M418.7,415c-0.6,0-1-0.5-1-1v-61c0-0.6,0.4-1,1-1s1,0.5,1,1v61C419.7,414.5,419.3,415,418.7,415z"/>
		<path d="M428.7,266h-19c-0.6,0-1-0.4-1-1s0.4-1,1-1h19c0.6,0,1,0.4,1,1S429.3,266,428.7,266z"/>
		<path d="M429.7,201c-0.2,0-0.4-0.1-0.6-0.2l-10.4-7.6l-9.8,7.2c-0.4,0.3-1.1,0.2-1.4-0.2s-0.2-1.1,0.2-1.4l10.4-7.6
		c0.4-0.3,0.8-0.3,1.2,0l11,8c0.4,0.3,0.5,1,0.2,1.4C430.3,200.9,430,201,429.7,201z"/>
		<path d="M419.3,333.6c-0.2,0-0.4-0.1-0.6-0.2l-11-8c-0.4-0.3-0.5-1-0.2-1.4s1-0.5,1.4-0.2l10.4,7.6l9.8-7.2
		c0.4-0.3,1.1-0.2,1.4,0.2c0.3,0.4,0.2,1.1-0.2,1.4l-10.4,7.6C419.8,333.6,419.6,333.6,419.3,333.6z"/>
		<path d="M356.8,395.5c-0.3,0-0.6-0.1-0.8-0.4l-7.6-10.4c-0.3-0.4-0.3-0.8,0-1.2l8-11c0.3-0.4,1-0.5,1.4-0.2s0.5,1,0.2,1.4
		l-7.6,10.4l7.2,9.8c0.3,0.4,0.2,1.1-0.2,1.4C357.3,395.4,357.1,395.5,356.8,395.5z"/>
		<path d="M479.8,395.5c-0.2,0-0.4-0.1-0.6-0.2c-0.4-0.3-0.5-1-0.2-1.4l7.6-10.4l-7.2-9.8c-0.3-0.4-0.2-1.1,0.2-1.4s1.1-0.2,1.4,0.2
		l7.6,10.4c0.3,0.4,0.3,0.8,0,1.2l-8,11C480.5,395.4,480.2,395.5,479.8,395.5z"/>

		<g>
			<circle pulse:cmd="idle" pulse:initial="true" fill="transparent" cx="419.7" cy="262.5" r="29"/>
		</g>
	</g>
</svg>
