<?xml version="1.0" encoding="utf-8"?>
<!-- Generator: Adobe Illustrator 21.0.0, SVG Export Plug-In . SVG Version: 6.00 Build 0)  -->
<svg version="1.1" id="Layer_1" 
	xmlns="http://www.w3.org/2000/svg" 
	xmlns:xlink="http://www.w3.org/1999/xlink" x="0px" y="0px" viewBox="0 0 215 571.7" style="enable-background:new 0 0 215 571.7;" xml:space="preserve" 
	xmlns:pulse="-">
	<g>
		<path d="M179.2,0H35.8C16,0,0,16,0,35.8v500.1c0,19.7,16,35.8,35.8,35.8h143.4c19.7,0,35.8-16,35.8-35.8V35.8
		C215,16,199,0,179.2,0z M212,535.9c0,18.1-14.7,32.8-32.8,32.8H35.8C17.7,568.7,3,554,3,535.9V35.8C3,17.7,17.7,3,35.8,3h143.4
		C197.3,3,212,17.7,212,35.8V535.9z"/>
		<path d="M177.6,9.3H37.4C22.1,9.3,9.6,21.7,9.6,37v497.6c0,15.3,12.5,27.8,27.8,27.8h140.2c15.3,0,27.8-12.5,27.8-27.8
		V37C205.4,21.7,192.9,9.3,177.6,9.3z M11.1,504.4v-6.5h192.7v6.5H11.1z M203.9,505.9v1.5H11.1v-1.5H203.9z M11.1,496.4v-1.5h192.7
		v1.5H11.1z M177.6,560.9H37.4c-14.5,0-26.3-11.8-26.3-26.3v-25.7h192.7v25.7C203.9,549.1,192.1,560.9,177.6,560.9z M203.9,493.4
		H11.1V37c0-14.5,11.8-26.3,26.3-26.3h140.2c14.5,0,26.3,11.8,26.3,26.3V493.4z"/>
	</g>
	<g>
		<path d="M106.3,360.8c-15.2,0-27.6-12.4-27.6-27.6s12.4-27.6,27.6-27.6c15.2,0,27.6,12.4,27.6,27.6
		S121.5,360.8,106.3,360.8z M106.3,307.1c-14.4,0-26.1,11.7-26.1,26.1s11.7,26.1,26.1,26.1s26.1-11.7,26.1-26.1
		S120.7,307.1,106.3,307.1z"/>
	</g>
	<g>
		<path d="M106.3,222.3c-15.2,0-27.6-12.4-27.6-27.6c0-15.2,12.4-27.6,27.6-27.6c15.2,0,27.6,12.4,27.6,27.6
		C133.9,209.9,121.5,222.3,106.3,222.3z M106.3,168.6c-14.4,0-26.1,11.7-26.1,26.1s11.7,26.1,26.1,26.1s26.1-11.7,26.1-26.1
		S120.7,168.6,106.3,168.6z"/>
	</g>
	<g>
		<path d="M106.3,291.5c-15.2,0-27.6-12.4-27.6-27.6s12.4-27.6,27.6-27.6c15.2,0,27.6,12.4,27.6,27.6
		S121.5,291.5,106.3,291.5z M106.3,237.8c-14.4,0-26.1,11.7-26.1,26.1S91.9,290,106.3,290s26.1-11.7,26.1-26.1
		S120.7,237.8,106.3,237.8z"/>
	</g>
	<g>
		<path pulse:cmd="down" fill="#fff" d="M123.6,315.9c4.6,4.6,7.2,10.8,7.2,17.3s-2.5,12.7-7.2,17.3c-4.6,4.6-10.8,7.2-17.3,7.2
		c-6.5,0-12.7-2.6-17.3-7.2c-4.6-4.6-7.2-10.8-7.2-17.3s2.6-12.7,7.2-17.3c4.6-4.6,10.8-7.2,17.3-7.2
		C112.8,308.7,119,311.2,123.6,315.9z"/>
	</g>
	<g>
		<path pulse:cmd="idle" pulse:initial="true" fill="#fff" d="M123.6,246.6c4.6,4.6,7.2,10.8,7.2,17.3s-2.5,12.7-7.2,17.3c-4.6,4.6-10.8,7.2-17.3,7.2
		c-6.5,0-12.7-2.5-17.3-7.2c-4.6-4.6-7.2-10.8-7.2-17.3s2.6-12.7,7.2-17.3c4.6-4.6,10.8-7.2,17.3-7.2
		C112.8,239.5,119,242,123.6,246.6z"/>
	</g>
	<g>
		<path pulse:cmd="up" fill="#fff" d="M123.6,177.4c4.6,4.6,7.2,10.8,7.2,17.3c0,6.5-2.5,12.7-7.2,17.3c-4.6,4.6-10.8,7.2-17.3,7.2
		c-6.5,0-12.7-2.6-17.3-7.2c-4.6-4.6-7.2-10.8-7.2-17.3c0-6.5,2.6-12.7,7.2-17.3c4.6-4.6,10.8-7.2,17.3-7.2
		C112.8,170.2,119,172.8,123.6,177.4z"/>
	</g>
	<g>
		<path d="M106.3,345.9C106.3,345.9,106.3,345.9,106.3,345.9c-0.9,0-1.8-0.5-2.2-1.3h0l-9.3-16.2c-0.5-0.8-0.5-1.8,0-2.6
		c0.5-0.8,1.3-1.3,2.2-1.3h18.6c0.9,0,1.8,0.5,2.2,1.3c0.5,0.8,0.5,1.8,0,2.6l-9.3,16.2C108.1,345.4,107.2,345.9,106.3,345.9z
		 M105.8,343.6c0.2,0.3,0.4,0.3,0.5,0.3l0,0c0.1,0,0.4,0,0.5-0.3l9.3-16.2c0.1-0.3,0-0.5,0-0.6s-0.2-0.3-0.5-0.3H97
		c-0.3,0-0.5,0.2-0.5,0.3c0,0.1-0.2,0.3,0,0.6L105.8,343.6L105.8,343.6z"/>
	</g>
	<g>
		<path d="M115.6,203.4H97c-0.9,0-1.8-0.5-2.2-1.3c-0.5-0.8-0.5-1.8,0-2.6l9.3-16.2c0.5-0.8,1.3-1.3,2.2-1.3h0
		c0.9,0,1.8,0.5,2.2,1.3l9.3,16.2c0.5,0.8,0.5,1.8,0,2.6C117.4,202.9,116.5,203.4,115.6,203.4z M106.3,184c-0.1,0-0.4,0-0.5,0.3
		l-9.3,16.2c-0.1,0.3,0,0.5,0,0.6c0,0.1,0.2,0.3,0.5,0.3h18.6c0.3,0,0.5-0.2,0.5-0.3c0-0.1,0.2-0.3,0-0.6l-9.3-16.2
		C106.7,184,106.4,184,106.3,184z"/>
	</g>
	<g>
		<path d="M113.4,275.7H99.2c-2.6,0-4.7-2.1-4.7-4.7v-14.2c0-2.6,2.1-4.7,4.7-4.7h14.2c2.6,0,4.7,2.1,4.7,4.7V271
		C118.1,273.6,116,275.7,113.4,275.7z M99.2,254.1c-1.5,0-2.7,1.2-2.7,2.7V271c0,1.5,1.2,2.7,2.7,2.7h14.2c1.5,0,2.7-1.2,2.7-2.7
		v-14.2c0-1.5-1.2-2.7-2.7-2.7H99.2z"/>
	</g>
</svg>