<?xml version="1.0" encoding="utf-8"?>
<!-- Generator: Adobe Illustrator 20.0.0, SVG Export Plug-In . SVG Version: 6.00 Build 0)  -->
<svg version="1.1" xmlns="http://www.w3.org/2000/svg" xmlns:xlink="http://www.w3.org/1999/xlink" x="0px" y="0px"
	 viewBox="0 0 1150.73 833.45" style="enable-background:new 0 0 1150.73 833.45;" xml:space="preserve">
<style type="text/css">
	.st0{fill:#1A1A18;}
</style>
<g id="Layer_2">
</g>
<g id="Layer_1">
</g>
<g id="Layer_3">
	<g>
		<path class="st0" d="M12.78,19.98c-1.08,0.29-1.96,1.57-1.96,2.86c0,1.29,0.88,2.11,1.96,1.82c1.08-0.29,1.96-1.57,1.96-2.86
			C14.74,20.51,13.86,19.69,12.78,19.98z"/>
		<path class="st0" d="M12.44,51.36c-1.18,0.31-2.13,1.71-2.13,3.11c0,1.41,0.96,2.29,2.13,1.98c1.18-0.31,2.13-1.71,2.13-3.11
			C14.58,51.93,13.62,51.04,12.44,51.36z"/>
		<path class="st0" d="M1149.01,132.53l-1.12-3.18l-0.13-0.33c-4.32-9.6-10.57-14.92-18.61-15.82L50.38,0.1
			c-0.68-0.07-1.46-0.15-2.47-0.06c-3.4,0.29-6.79,1.98-9.65,4.73c-0.1-0.03-0.21-0.06-0.32-0.09l-0.65-0.18l-14.33,0.5L0,10.45
			v57.16l23.3-1.3l3.66-0.93c3.75,10.42,11.3,11.23,13.17,11.26l3.8,0.35l-0.15,702.15l-1.52-0.03c-0.19,0-0.39-0.01-0.59,0
			c-3.83-0.54-7.64,0.77-10.77,3.72c-2.73,2.58-4.66,6.22-5.44,10.26c-0.82,4.26-0.3,8.52,1.44,11.99c1.94,3.85,5.15,6.38,9.04,7.13
			c0.83,0.16,1.66,0.26,2.52,0.21l1076.17,21l2,0.04l0.55-0.08c0.14-0.02,0.28-0.04,0.45-0.08c6.87-1.32,11.02-8.76,9.45-16.92
			c-0.28-1.45-0.73-2.84-1.35-4.16l0-1.11l-1.03-0.77c-1.4-2.19-3.23-3.91-5.31-5.01l-0.12-630.42c2.58,0.28,5.55,0.54,7.17,0.5
			c2.57-0.06,7.4-0.99,9.94-1.91C1149.02,168.92,1153.54,147.72,1149.01,132.53z M43.87,68.45l-1.26-0.12
			c6.16-3.19,11.87-15.42,13.37-29.56c1.24-11.64-0.66-21.89-4.84-26.12c-1.11-1.13-2.34-1.79-3.66-1.99
			c0.28-0.06,0.55-0.11,0.83-0.14c1.64-0.14,3.14,0.49,4.49,1.87c4.18,4.29,6.03,14.56,4.71,26.15C55.93,52.53,50.04,65,43.87,68.45
			z M38.2,803.92c-0.21,0-0.42-0.02-0.63-0.06c-0.19-0.04-0.36-0.09-0.53-0.15c-2.21-0.81-3.59-3.87-3.41-7.37
			c0-0.05,0.01-0.1,0.01-0.15c0.01-0.22,0.03-0.44,0.06-0.66c0.03-0.28,0.08-0.57,0.13-0.85c0.01-0.07,0.03-0.13,0.05-0.2
			c0.46-2.19,1.5-4.18,2.88-5.48c0.01-0.01,0.03-0.02,0.04-0.04c0.08-0.07,0.16-0.15,0.25-0.22c0.07-0.06,0.14-0.11,0.21-0.17
			c0.03-0.03,0.07-0.05,0.1-0.08c0.1-0.07,0.2-0.15,0.31-0.22c0.01-0.01,0.02-0.01,0.03-0.02c0.51-0.33,1.12-0.62,1.81-0.72
			c0.36-0.05,0.74-0.05,1.13,0.02l0.1,0.02c0.41,0.09,0.78,0.24,1.11,0.44c1.02,0.62,1.65,1.68,1.96,2.36
			c0.52,1.11,0.8,2.43,0.83,3.82c0.01,0.28,0,0.56-0.01,0.84c-0.03,0.56-0.09,1.13-0.2,1.7c-0.05,0.27-0.11,0.54-0.18,0.8
			c-0.02,0.06-0.04,0.12-0.05,0.18c-0.06,0.21-0.12,0.41-0.19,0.61c-0.02,0.06-0.04,0.12-0.06,0.17c-0.07,0.21-0.15,0.41-0.23,0.61
			c-0.02,0.04-0.03,0.08-0.05,0.12c-0.1,0.23-0.2,0.45-0.31,0.67c-0.01,0.01-0.01,0.02-0.01,0.03c-0.5,0.96-1.12,1.81-1.83,2.48
			c-0.54,0.51-1.51,1.25-2.68,1.46c-0.04,0.01-0.08,0.01-0.12,0.01c-0.16,0.02-0.32,0.04-0.49,0.04L38.2,803.92z M52.3,743.61
			l1058.6,27.08l0,10.46L52.3,754.08L52.3,743.61z M52.31,716.21l1058.59,29.86l0,10.46L52.31,726.67L52.31,716.21z M52.31,688.8
			l1058.58,32.63l0,10.46L52.31,699.26L52.31,688.8z M52.32,661.38l1058.57,35.4l0,10.46L52.32,671.85L52.32,661.38z M52.33,633.96
			l1058.56,38.18l0,10.46L52.32,644.43L52.33,633.96z M52.33,606.54l1058.55,40.95l0,10.46L52.33,617L52.33,606.54z M52.34,579.11
			l1058.54,43.73l0,10.46L52.33,589.57L52.34,579.11z M52.34,551.67l1058.53,46.5l0,10.46L52.34,562.13L52.34,551.67z M52.35,524.23
			l1058.52,49.28l0,10.46L52.35,534.69L52.35,524.23z M52.35,496.78l1058.51,52.06l0,10.46L52.35,507.24L52.35,496.78z
			 M52.36,469.32l1058.5,54.84l0,10.46L52.36,479.78L52.36,469.32z M52.37,441.86l1058.49,57.61l0,10.46L52.36,452.32L52.37,441.86z
			 M52.37,414.39l1058.48,60.39l0,10.46L52.37,424.85L52.37,414.39z M52.38,386.91l1058.47,63.17l0,10.46L52.37,397.37L52.38,386.91
			z M52.38,359.42l1058.46,65.95l0,10.46L52.38,369.88L52.38,359.42z M52.39,331.92l1058.45,68.74l0,10.46L52.39,342.38
			L52.39,331.92z M52.39,304.42l1058.43,71.52l0,10.46L52.39,314.87L52.39,304.42z M52.4,276.9l1058.42,74.3l0,10.46L52.4,287.36
			L52.4,276.9z M52.41,249.38l1058.41,77.08l0,10.46L52.4,259.83L52.41,249.38z M52.41,221.84l1058.4,79.87l0,10.46L52.41,232.3
			L52.41,221.84z M52.42,194.29l1058.39,82.66l0,10.46L52.42,204.75L52.42,194.29z M52.42,166.73l1058.38,85.45l0,10.46
			L52.42,177.19L52.42,166.73z M52.43,139.16l1058.37,88.23l0,10.46L52.43,149.62L52.43,139.16z M52.43,111.58L1110.8,202.6l0,10.45
			L52.43,122.03L52.43,111.58z M1110.8,199.76L52.44,108.73l0-11.45L1110.8,191.1L1110.8,199.76z M1110.8,215.9l0,8.65L52.43,136.32
			l0-11.44L1110.8,215.9z M1110.8,240.69l0,8.64L52.42,163.89l0-11.43L1110.8,240.69z M1110.81,265.48l0,8.63L52.42,191.45l0-11.42
			L1110.81,265.48z M1110.81,290.25l0,8.62L52.41,219l0-11.41L1110.81,290.25z M1110.82,315.01l0,8.61L52.41,246.53l0-11.4
			L1110.82,315.01z M1110.82,339.76l0,8.6L52.4,274.06l0-11.39L1110.82,339.76z M1110.83,364.5l0,8.59L52.4,301.58l0-11.38
			L1110.83,364.5z M1110.83,389.23l0,8.58L52.39,329.08l0-11.37L1110.83,389.23z M1110.84,413.96l0,8.57L52.38,356.58l0-11.36
			L1110.84,413.96z M1110.84,438.67l0,8.57L52.38,384.07l0-11.35L1110.84,438.67z M1110.85,463.38l0,8.56L52.37,411.55l0-11.34
			L1110.85,463.38z M1110.85,488.08l0,8.55L52.37,439.02l0-11.33L1110.85,488.08z M1110.85,512.77l0,8.55L52.36,466.48l0-11.33
			L1110.85,512.77z M1110.86,537.46l0,8.54L52.35,493.94l0-11.32L1110.86,537.46z M1110.86,562.14l0,8.53L52.35,521.39l0-11.31
			L1110.86,562.14z M1110.87,586.81l0,8.53L52.34,548.83l0-11.31L1110.87,586.81z M1110.87,611.47l0,8.53L52.34,576.27l0-11.3
			L1110.87,611.47z M1110.88,636.14l0,8.52L52.33,603.7l0-11.3L1110.88,636.14z M1110.88,660.79l0,8.51L52.33,631.13l0-11.29
			L1110.88,660.79z M1110.89,685.44l0,8.51L52.32,658.55l0-11.29L1110.89,685.44z M1110.89,710.09l0,8.5L52.31,685.96l0-11.28
			L1110.89,710.09z M1110.9,734.73l0,8.5L52.31,713.37l0-11.27L1110.9,734.73z M1110.9,759.36l0,8.5L52.3,740.78l0-11.27
			L1110.9,759.36z M52.3,756.91L1110.9,784l0,10.67L52.3,767.58L52.3,756.91z M1110.79,188.25L52.44,94.44l0-10.45l1058.35,93.81
			L1110.79,188.25z M52.3,770.42l1058.61,27.08l0,10.62L52.29,783.58L52.3,770.42z M45.72,804.05c0.34-0.44,0.66-0.91,0.95-1.4
			c0.01-0.01,0.02-0.03,0.02-0.04c0.29-0.49,0.56-1,0.79-1.53c0-0.01,0.01-0.01,0.01-0.02c0.22-0.51,0.42-1.03,0.59-1.57
			c0.03-0.1,0.06-0.2,0.09-0.31c0.16-0.54,0.31-1.09,0.42-1.66c0.61-3.17,0.28-6.35-0.94-8.95c-0.14-0.29-0.28-0.58-0.44-0.85
			l0.67,0.01l4.39,0.15v-0.05l1060.72,24.59c0,0,0.83,0.04,1.17,0.05c0.16,0.01,0.33,0.05,0.5,0.09c0.09,0.02,0.18,0.04,0.26,0.07
			c0.17,0.06,0.34,0.13,0.51,0.22c0.08,0.04,0.16,0.09,0.24,0.14c0.11,0.07,0.23,0.15,0.34,0.23c0.12,0.09,0.24,0.19,0.35,0.29
			c0.11,0.1,0.22,0.21,0.33,0.32c0.11,0.12,0.22,0.24,0.32,0.37c0.05,0.06,0.09,0.12,0.14,0.18c0.18,0.24,0.36,0.5,0.52,0.78
			c0.05,0.08,0.09,0.15,0.13,0.23c0.2,0.36,0.36,0.74,0.5,1.13c0.02,0.04,0.04,0.08,0.05,0.13c0.15,0.42,0.27,0.85,0.35,1.3
			c0,0.01,0,0.01,0.01,0.02c0.64,3.35-0.58,6.52-2.66,6.96l-621.03-12.12L45.72,804.05z M1110.79,174.95L52.44,81.14l0-6.21
			l1058.35,96.51L1110.79,174.95z M40.01,68.12c-1.08-0.16-4.35-1.27-5.91-8.74l-0.12-0.6c1.18-0.53,2.32-1.19,3.41-1.97h1.11l1.1,0
			c4.81-0.64,9.49-9.07,10.64-19.2c0.9-7.95-0.68-14.82-3.95-17.1c-0.06-0.04-0.13-0.06-0.19-0.1l-0.39-0.78
			c-0.82-1.65-1.87-3.09-3.14-4.28c-0.25-0.23-0.51-0.45-0.78-0.67c0.94-1.09,1.9-2,2.87-2.68c0.51-0.19,1.01-0.32,1.52-0.37
			c0.15-0.01,0.31-0.02,0.46-0.02c1.38,0,2.65,0.59,3.8,1.76c3.97,4.03,5.76,13.96,4.56,25.31C53.34,54.27,46.62,67.47,40.01,68.12z
			 M24.94,15.45c0.58,0.06,1.43,0.13,2.44,0.2l0.01,0c0.06,0.01,0.11,0.03,0.17,0.04c0.39,0.08,0.78,0.18,1.15,0.3
			c0.1,0.03,0.19,0.08,0.29,0.11c0.33,0.12,0.65,0.24,0.97,0.38c0.2,0.09,0.39,0.21,0.58,0.32c0.2,0.11,0.41,0.21,0.6,0.33
			c0.39,0.24,0.76,0.51,1.12,0.8c0.33,0.27,0.63,0.56,0.93,0.87c0.12,0.12,0.23,0.24,0.34,0.37c0.16,0.18,0.32,0.37,0.47,0.56
			c0.13,0.17,0.27,0.35,0.39,0.53c0.1,0.15,0.19,0.3,0.29,0.45c0.13,0.2,0.26,0.4,0.37,0.61c0.05,0.09,0.1,0.2,0.15,0.29
			c0.12,0.22,0.23,0.45,0.33,0.68c0.09,0.2,0.17,0.39,0.25,0.6c0.09,0.23,0.17,0.48,0.25,0.72c0.09,0.28,0.17,0.56,0.24,0.85
			c0.06,0.24,0.12,0.48,0.17,0.73c0.04,0.18,0.08,0.36,0.11,0.55c0.07,0.41,0.12,0.83,0.16,1.25c0.01,0.13,0.02,0.26,0.03,0.4
			c0.03,0.48,0.05,0.96,0.04,1.46l-0.15,8.76c-0.08,4.55-1.92,9.35-5.05,13.16c-0.34,0.42-0.7,0.82-1.07,1.2
			c-0.15,0.16-0.3,0.31-0.46,0.46c-0.26,0.26-0.52,0.51-0.79,0.76c-0.17,0.16-0.35,0.3-0.53,0.45c-0.21,0.18-0.43,0.35-0.64,0.52
			c-0.2,0.15-0.4,0.3-0.6,0.45c-0.22,0.16-0.44,0.3-0.66,0.45c-0.19,0.13-0.39,0.26-0.58,0.38c-0.39,0.24-0.79,0.46-1.19,0.67
			c-0.15,0.08-0.3,0.14-0.45,0.21c-0.3,0.14-0.59,0.28-0.89,0.4c-0.17,0.07-0.34,0.13-0.51,0.19c-0.3,0.11-0.61,0.22-0.92,0.31
			c-0.15,0.05-0.3,0.09-0.45,0.13c-0.46,0.12-0.91,0.23-1.37,0.31L9.17,59.64V19.29l12.27-3.34C22.63,15.62,23.8,15.47,24.94,15.45z
			 M28.37,57.44c0.42-0.28,0.84-0.56,1.24-0.87c0.15-0.11,0.29-0.23,0.43-0.35c0.37-0.3,0.75-0.6,1.11-0.92
			c0.04-0.03,0.08-0.06,0.11-0.1c0.11-0.1,0.22-0.2,0.32-0.3c0.16-0.15,0.32-0.32,0.48-0.48c0.16-0.16,0.33-0.32,0.49-0.49
			c0.42-0.44,0.83-0.89,1.22-1.37c3.58-4.36,5.61-9.65,5.7-14.91l0.15-8.76c0.01-0.61-0.01-1.21-0.06-1.8
			c-0.01-0.11-0.01-0.21-0.02-0.32c-0.05-0.58-0.13-1.15-0.23-1.71c-0.01-0.07-0.03-0.14-0.04-0.21c-0.23-1.17-0.56-2.3-1-3.37
			c-0.02-0.05-0.04-0.09-0.06-0.14c-0.21-0.5-0.44-0.98-0.69-1.45c-0.29-0.52-0.62-1.01-0.96-1.49c-0.06-0.09-0.13-0.18-0.2-0.27
			c-0.26-0.35-0.54-0.68-0.83-1c-0.09-0.1-0.18-0.2-0.27-0.3c-0.37-0.39-0.76-0.76-1.17-1.1c-0.26-0.22-0.53-0.42-0.81-0.61
			l3.26-0.12c0.86,0.27,1.68,0.64,2.44,1.12l0.17,0.11c0.52,0.34,1.02,0.73,1.48,1.17c0.56,0.53,1.07,1.11,1.52,1.76l1,1.77
			c0.11,0.2,0.22,0.4,0.31,0.59l0.12,0.24c0.78,1.9,1.18,4.02,1.19,6.3l0.02,8.51c0.01,4.63-1.56,9.34-4.41,13.28
			c-2.55,3.51-5.88,6.01-9.38,7.05L30.6,57c-0.85,0.23-1.7,0.45-2.56,0.66C28.16,57.59,28.26,57.51,28.37,57.44z M42.65,51.52
			c3.2-4.41,4.96-9.72,4.95-14.95l-0.02-8.51c0-2.01-0.28-3.91-0.83-5.73c2.21,2.76,3.21,8.64,2.47,15.15
			c-1.08,9.53-5.47,17.75-9.71,18.32h-0.86C40.12,54.58,41.47,53.15,42.65,51.52z M1133.5,165.5c-1.66,0.6-5.59,1.36-7.24,1.4
			c-1.83,0.06-7.52-0.59-10.67-1l-4.8-0.62v0.46L52.44,69.24v-0.01l-4.41-0.4c5.91-5.43,10.8-16.8,12.3-29.96
			c1.43-12.6-0.68-23.5-5.5-28.45c-0.58-0.6-1.2-1.09-1.85-1.49l1075.24,112.72c4.84,0.54,8.67,4.04,11.7,10.7l0.96,2.71
			C1144.42,147.03,1140.57,162.94,1133.5,165.5z"/>
	</g>
</g>
</svg>